<svg width="512" height="512" viewBox="0 0 512 512" xmlns="http://www.w3.org/2000/svg">
  <defs>
    <linearGradient id="skyGradient" x1="0%" y1="0%" x2="0%" y2="100%">
      <stop offset="0%" style="stop-color:#87CEEB;stop-opacity:1" />
      <stop offset="100%" style="stop-color:#2563eb;stop-opacity:1" />
    </linearGradient>
  </defs>
  
  <!-- Background -->
  <rect width="512" height="512" rx="80" fill="url(#skyGradient)"/>
  
  <!-- Plane icon -->
  <g transform="translate(256,256)">
    <!-- Plane body -->
    <path d="M-60,-20 L60,-10 L80,0 L60,10 L-60,20 Z" fill="white" opacity="0.9"/>
    
    <!-- Wings -->
    <path d="M-20,-60 L20,-40 L40,-30 L20,-20 L-20,-40 Z" fill="white" opacity="0.8"/>
    <path d="M-20,40 L20,20 L40,30 L20,40 L-20,60 Z" fill="white" opacity="0.8"/>
    
    <!-- Tail -->
    <path d="M-60,-30 L-80,-40 L-70,-20 L-60,-10 Z" fill="white" opacity="0.7"/>
    <path d="M-60,10 L-70,20 L-80,40 L-60,30 Z" fill="white" opacity="0.7"/>
    
    <!-- Cockpit -->
    <circle cx="40" cy="0" r="8" fill="white" opacity="0.9"/>
  </g>
  
  <!-- GPS tracking dots -->
  <circle cx="150" cy="150" r="4" fill="white" opacity="0.6">
    <animate attributeName="opacity" values="0.6;1;0.6" dur="2s" repeatCount="indefinite"/>
  </circle>
  <circle cx="200" cy="180" r="4" fill="white" opacity="0.6">
    <animate attributeName="opacity" values="0.6;1;0.6" dur="2s" begin="0.5s" repeatCount="indefinite"/>
  </circle>
  <circle cx="320" cy="200" r="4" fill="white" opacity="0.6">
    <animate attributeName="opacity" values="0.6;1;0.6" dur="2s" begin="1s" repeatCount="indefinite"/>
  </circle>
  <circle cx="380" cy="160" r="4" fill="white" opacity="0.6">
    <animate attributeName="opacity" values="0.6;1;0.6" dur="2s" begin="1.5s" repeatCount="indefinite"/>
  </circle>
</svg>